<svg width="87" height="90" viewBox="0 0 87 90" fill="none" xmlns="http://www.w3.org/2000/svg">
<path d="M17.6555 78.9884C17.6555 81.069 18.482 83.0644 19.9532 84.5356C21.4244 86.0068 23.4198 86.8333 25.5005 86.8333C27.5811 86.8333 29.5765 86.0068 31.0477 84.5356C32.5189 83.0644 33.3454 81.069 33.3454 78.9884M45.1129 78.9884C45.1129 81.069 45.9394 83.0644 47.4106 84.5356C48.8818 86.0068 50.8772 86.8333 52.9578 86.8333C55.0384 86.8333 57.0338 86.0068 58.505 84.5356C59.9763 83.0644 60.8028 81.069 60.8028 78.9884M23.5392 26.0349H84.3377V27.0155L83.4002 28.1256C73.8714 39.442 68.6465 53.7607 68.6478 68.5546V69.1822H17.6555V61.8079C17.6555 53.6492 17.3966 45.4982 16.1414 37.4415C13.9684 23.4931 9.17117 2.5 0.0043335 2.5C4.67103 2.5 17.6387 18.1899 23.5392 26.0349Z" stroke="#F4F4F4" stroke-width="5"/>
</svg>
